<?xml version="1.0" encoding="UTF-8"?>
<svg width="400" height="400" version="1.1" xmlns="http://www.w3.org/2000/svg">
 <path d="m258.27 53.063h-116.54v191.77q0 24.828 6.2996 31.498 6.4852 6.6702 30.016 7.4114v6.8556h-108.21v-6.8556q23.346-0.74103 29.831-7.4114 6.4846-6.6702 6.4846-31.498v-159.72q0-24.828-6.4846-31.499-6.4852-6.6702-29.831-7.4113v-6.8556h260.33v6.8556q-23.346 0.74104-29.831 7.4113-6.4852 6.6704-6.4852 31.499v159.72q0 24.828 6.4852 31.498 6.4852 6.6702 29.831 7.4114v6.8556h-108.02v-6.8556q23.161-0.74103 29.646-7.2262 6.4852-6.6702 6.4852-31.684z"/>
</svg>
